<?xml version="1.0" encoding="utf-8"?>
<!-- Generator: Adobe Illustrator 22.1.0, SVG Export Plug-In . SVG Version: 6.00 Build 0)  -->
<svg version="1.1" id="Layer_1" xmlns="http://www.w3.org/2000/svg" xmlns:xlink="http://www.w3.org/1999/xlink" x="0px" y="0px"
	 viewBox="0 0 25 25" style="enable-background:new 0 0 25 25;" xml:space="preserve">
<style type="text/css">
	.st0{fill:#EC008C;}
</style>
<g>
	<g>
		<path class="st0" d="M12.5,25C5.6,25,0,19.4,0,12.5S5.6,0,12.5,0S25,5.6,25,12.5S19.4,25,12.5,25z M12.5,1C6.2,1,1,6.2,1,12.5
			S6.2,24,12.5,24S24,18.8,24,12.5S18.8,1,12.5,1z"/>
	</g>
	<path class="st0" d="M17.5,8.3H7.7c-0.3,0-0.6,0.1-0.8,0.3C6.7,8.9,6.6,9.1,6.6,9.4v6.2c0,0.6,0.5,1.1,1.1,1.1h9.8
		c0.6,0,1.1-0.5,1.1-1.1V9.4C18.6,8.8,18.1,8.3,17.5,8.3z M17.1,9.2l-4.4,4l-4.5-4H17.1z M7.5,15.2V9.8l3,2.7L7.5,15.2z M8.2,15.8
		l3-2.6l1.4,1.3l1.4-1.3l3,2.6C17,15.8,8.2,15.8,8.2,15.8z M17.7,15.2l-3-2.6l3-2.7V15.2z"/>
</g>
</svg>
