<?xml version="1.0" encoding="utf-8"?>
<!-- Generator: Adobe Illustrator 22.1.0, SVG Export Plug-In . SVG Version: 6.00 Build 0)  -->
<svg version="1.1" id="Layer_1" xmlns="http://www.w3.org/2000/svg" xmlns:xlink="http://www.w3.org/1999/xlink" x="0px" y="0px"
	 viewBox="0 0 184.1 69.3" style="enable-background:new 0 0 184.1 69.3;" xml:space="preserve">
<style type="text/css">
	.st0{fill:#3DD4E8;}
	.st1{fill:#EA168C;}
	.st2{enable-background:new    ;}
	.st3{fill:#FFFFFF;}
</style>
<path class="st0" d="M33.5,43.1c0,2.9-2.4,5.3-5.3,5.3h-2.1c-3.6,0-6.5-2.9-6.5-6.6v-6.5c0-3.6,2.9-6.5,6.6-6.5h2.3
	c2.8,0,5.1,2.3,5.1,5.1L33.5,43.1z M28.7,27.2h-7.4c-5.4,0-9.8,4.4-9.8,9.8v3.2c0,5.4,4.4,9.8,9.8,9.8h13.9l0.1-16.3
	C35.2,30.2,32.3,27.2,28.7,27.2"/>
<path class="st0" d="M96.4,35.7c0,4.8-3.9,8.6-8.6,8.6l0,0c-2.9,0-5.3-2.4-5.3-5.3l0.1-31.1c0-2.9,2.4-5.3,5.3-5.3l0,0
	c4.8,0,8.6,3.9,8.6,8.6L96.4,35.7z M88.3,1h-4.1c-5.4,0-9.8,4.4-9.8,9.8l-0.1,25.3c0,5.4,4.4,9.8,9.8,9.8h4.1c5.4,0,9.8-4.4,9.8-9.8
	l0.1-25.3C98.1,5.5,93.7,1.1,88.3,1"/>
<path class="st0" d="M71.9,36.3V1h-8.2v49H98v-1.7H84C77.3,48.4,71.9,43,71.9,36.3"/>
<path class="st0" d="M33.5,15c0,4.5-3.7,8.2-8.2,8.2h-11c-2.9,0-5.3-2.4-5.3-5.3V8.1c0-2.9,2.4-5.3,5.3-5.3h11
	c4.5,0,8.2,3.7,8.2,8.2V15z M25.4,1H0.9v49H9V36.9c0-6.7,5.4-12.1,12.1-12.1h4.2c5.4,0,9.8-4.4,9.8-9.8v-4.1C35.2,5.4,30.8,1,25.4,1
	"/>
<path class="st0" d="M102.1,1.1v1.6c5.4,0,9.8,4.4,9.8,9.8v37.6h8.2V14.8c0-6.7,5.4-12.1,12.1-12.1h14V1.1H102.1z"/>
<path class="st0" d="M144.6,39.9c0,4.8-3.9,8.6-8.6,8.6l0,0c-2.9,0-5.3-2.4-5.3-5.3l0.1-31.1c0-2.9,2.4-5.3,5.3-5.3
	c4.8,0,8.6,3.9,8.6,8.6L144.6,39.9z M136.6,5.2h-4.1c-5.4,0-9.8,4.4-9.8,9.8l-0.1,25.3c0,5.4,4.4,9.8,9.8,9.8h4.1
	c5.4,0,9.8-4.4,9.8-9.8l0.1-25.3C146.3,9.6,142,5.2,136.6,5.2"/>
<path class="st0" d="M170.8,1.1V45L158.3,5.6c-0.9-2.7-3.4-4.6-6.2-4.6h-1.7h-1.6v49h1.6V8.5L164.2,50h6.5l0,0h1.6V1h-1.5V1.1z"/>
<path class="st0" d="M178.9,1.1L178.9,1.1c-2.3,0-4.1,1.8-4.1,4.1s1.8,4.1,4.1,4.1c0.9,0,1.8-0.3,2.5-0.8l0,0c0,3.6-2.9,6.6-6.6,6.6
	v35.1h8.2v-41V8.4V5.1C183,2.9,181.2,1.1,178.9,1.1"/>
<path class="st0" d="M61.3,48.2v-0.6V3.5l0,0V1.1h-1.5l-0.1,42.1c0,2.9-2.4,5.3-5.3,5.3h-2.1c-3.6,0-6.5-2.9-6.5-6.6l0.1-40.8h-8.3
	v1.6l0,0l-0.1,37.5c0,5.4,4.4,9.8,9.8,9.8h12.3l0,0h1.6v-0.8l0,0L61.3,48.2L61.3,48.2z"/>
<g>
	<g>
		<rect x="0.6" y="54" class="st1" width="60.8" height="14.4"/>
	</g>
</g>
<g class="st2">
	<path class="st3" d="M9.2,61.5c0,1.3-0.9,2.2-2.1,2.2c-0.6,0-1.1-0.2-1.4-0.6v2.2H4.7v-5.9h1.1v0.5c0.3-0.4,0.8-0.6,1.4-0.6
		C8.3,59.2,9.2,60.2,9.2,61.5z M8.1,61.5c0-0.7-0.5-1.2-1.2-1.2c-0.7,0-1.2,0.5-1.2,1.2s0.5,1.2,1.2,1.2C7.6,62.7,8.1,62.2,8.1,61.5
		z"/>
	<path class="st3" d="M14,61v2.6h-1.1v-2.5c0-0.6-0.3-0.9-0.8-0.9c-0.5,0-0.9,0.3-0.9,1.1v2.3H10v-5.9h1.1v2.2
		c0.3-0.4,0.7-0.6,1.3-0.6C13.2,59.2,14,59.9,14,61z"/>
	<path class="st3" d="M14.7,61.5c0-1.3,1-2.2,2.2-2.2c1.2,0,2.2,1,2.2,2.2s-1,2.2-2.2,2.2C15.7,63.7,14.7,62.7,14.7,61.5z
		 M18.1,61.5c0-0.7-0.5-1.2-1.2-1.2c-0.6,0-1.1,0.5-1.1,1.2s0.5,1.2,1.1,1.2C17.6,62.6,18.1,62.1,18.1,61.5z"/>
	<path class="st3" d="M21.3,60.4v1.8c0,0.5,0.3,0.5,1,0.4v1c-1.5,0.2-2-0.3-2-1.4v-1.8h-0.7v-1h0.7v-0.9l1.1-0.3v1.2h1v1H21.3z"/>
	<path class="st3" d="M22.7,61.5c0-1.3,1-2.2,2.2-2.2c1.2,0,2.2,1,2.2,2.2s-1,2.2-2.2,2.2C23.7,63.7,22.7,62.7,22.7,61.5z
		 M26.1,61.5c0-0.7-0.5-1.2-1.2-1.2c-0.6,0-1.1,0.5-1.1,1.2s0.5,1.2,1.1,1.2C25.6,62.6,26.1,62.1,26.1,61.5z"/>
	<path class="st3" d="M32.2,59.3v4c0,1.4-1.1,2-2.2,2c-0.9,0-1.6-0.3-2-1l0.9-0.5c0.2,0.3,0.5,0.6,1.1,0.6c0.7,0,1.1-0.4,1.1-1v-0.5
		c-0.3,0.4-0.8,0.6-1.4,0.6c-1.2,0-2.1-1-2.1-2.2c0-1.2,0.9-2.2,2.1-2.2c0.6,0,1.1,0.2,1.4,0.6v-0.5H32.2z M31.2,61.4
		c0-0.7-0.5-1.2-1.2-1.2s-1.2,0.5-1.2,1.2c0,0.7,0.5,1.2,1.2,1.2S31.2,62.1,31.2,61.4z"/>
	<path class="st3" d="M35.6,59.3v1.2c-0.6-0.1-1.3,0.2-1.3,1.1v2h-1.1v-4.2h1.1v0.7C34.5,59.5,35.1,59.3,35.6,59.3z"/>
	<path class="st3" d="M40.4,59.3v4.2h-1.1v-0.5c-0.3,0.4-0.8,0.6-1.4,0.6c-1.1,0-2.1-1-2.1-2.2s0.9-2.2,2.1-2.2
		c0.6,0,1.1,0.2,1.4,0.6v-0.5H40.4z M39.3,61.5c0-0.7-0.5-1.2-1.2-1.2c-0.7,0-1.2,0.5-1.2,1.2s0.5,1.2,1.2,1.2
		C38.8,62.7,39.3,62.2,39.3,61.5z"/>
	<path class="st3" d="M45.9,61.5c0,1.3-0.9,2.2-2.1,2.2c-0.6,0-1.1-0.2-1.4-0.6v2.2h-1.1v-5.9h1.1v0.5c0.3-0.4,0.8-0.6,1.4-0.6
		C45,59.2,45.9,60.2,45.9,61.5z M44.8,61.5c0-0.7-0.5-1.2-1.2-1.2c-0.7,0-1.2,0.5-1.2,1.2s0.5,1.2,1.2,1.2
		C44.3,62.7,44.8,62.2,44.8,61.5z"/>
	<path class="st3" d="M50.7,61v2.6h-1.1v-2.5c0-0.6-0.3-0.9-0.8-0.9c-0.5,0-0.9,0.3-0.9,1.1v2.3h-1.1v-5.9h1.1v2.2
		c0.3-0.4,0.7-0.6,1.3-0.6C50,59.2,50.7,59.9,50.7,61z"/>
	<path class="st3" d="M55.4,59.3l-1.5,4.2c-0.4,1.2-1.2,1.8-2.2,1.7v-1c0.6,0,0.9-0.2,1.1-0.8L51,59.3h1.2l1.1,2.8l0.9-2.8H55.4z"/>
</g>
</svg>
