<?xml version="1.0" encoding="utf-8"?>
<!-- Generator: Adobe Illustrator 22.1.0, SVG Export Plug-In . SVG Version: 6.00 Build 0)  -->
<svg version="1.1" id="Layer_1" xmlns="http://www.w3.org/2000/svg" xmlns:xlink="http://www.w3.org/1999/xlink" x="0px" y="0px"
	 viewBox="0 0 184.1 72.3" style="enable-background:new 0 0 184.1 72.3;" xml:space="preserve">
<style type="text/css">
	.st0{fill:#0099EF;}
	.st1{fill:#EA168C;}
	.st2{enable-background:new    ;}
	.st3{fill:#FFFFFF;}
</style>
<path class="st0" d="M33.5,43.1c0,2.9-2.4,5.3-5.3,5.3h-2.1c-3.6,0-6.5-2.9-6.5-6.6v-6.5c0-3.6,2.9-6.5,6.6-6.5h2.3
	c2.8,0,5.1,2.3,5.1,5.1L33.5,43.1z M28.7,27.2h-7.4c-5.4,0-9.8,4.4-9.8,9.8v3.2c0,5.4,4.4,9.8,9.8,9.8h13.9l0.1-16.3
	C35.2,30.2,32.3,27.2,28.7,27.2"/>
<path class="st0" d="M96.4,35.7c0,4.8-3.9,8.6-8.6,8.6l0,0c-2.9,0-5.3-2.4-5.3-5.3l0.1-31.1c0-2.9,2.4-5.3,5.3-5.3l0,0
	c4.8,0,8.6,3.9,8.6,8.6L96.4,35.7z M88.3,1h-4.1c-5.4,0-9.8,4.4-9.8,9.8l-0.1,25.3c0,5.4,4.4,9.8,9.8,9.8h4.1c5.4,0,9.8-4.4,9.8-9.8
	l0.1-25.3C98.1,5.5,93.7,1.1,88.3,1"/>
<path class="st0" d="M71.9,36.3V1h-8.2v49H98v-1.7H84C77.3,48.4,71.9,43,71.9,36.3"/>
<path class="st0" d="M33.5,15c0,4.5-3.7,8.2-8.2,8.2h-11c-2.9,0-5.3-2.4-5.3-5.3V8.1c0-2.9,2.4-5.3,5.3-5.3h11
	c4.5,0,8.2,3.7,8.2,8.2V15z M25.4,1H0.9v49H9V36.9c0-6.7,5.4-12.1,12.1-12.1h4.2c5.4,0,9.8-4.4,9.8-9.8v-4.1C35.2,5.4,30.8,1,25.4,1
	"/>
<path class="st0" d="M102.1,1.1v1.6c5.4,0,9.8,4.4,9.8,9.8v37.6h8.2V14.8c0-6.7,5.4-12.1,12.1-12.1h14V1.1H102.1z"/>
<path class="st0" d="M144.6,39.9c0,4.8-3.9,8.6-8.6,8.6l0,0c-2.9,0-5.3-2.4-5.3-5.3l0.1-31.1c0-2.9,2.4-5.3,5.3-5.3
	c4.8,0,8.6,3.9,8.6,8.6L144.6,39.9z M136.6,5.2h-4.1c-5.4,0-9.8,4.4-9.8,9.8l-0.1,25.3c0,5.4,4.4,9.8,9.8,9.8h4.1
	c5.4,0,9.8-4.4,9.8-9.8l0.1-25.3C146.3,9.6,142,5.2,136.6,5.2"/>
<path class="st0" d="M170.8,1.1V45L158.3,5.6c-0.9-2.7-3.4-4.6-6.2-4.6h-1.7h-1.6v49h1.6V8.5L164.2,50h6.5l0,0h1.6V1h-1.5V1.1z"/>
<path class="st0" d="M178.9,1.1L178.9,1.1c-2.3,0-4.1,1.8-4.1,4.1s1.8,4.1,4.1,4.1c0.9,0,1.8-0.3,2.5-0.8l0,0c0,3.6-2.9,6.6-6.6,6.6
	v35.1h8.2v-41V8.4V5.1C183,2.9,181.2,1.1,178.9,1.1"/>
<path class="st0" d="M61.3,48.2v-0.6V3.5l0,0V1.1h-1.5l-0.1,42.1c0,2.9-2.4,5.3-5.3,5.3h-2.1c-3.6,0-6.5-2.9-6.5-6.6l0.1-40.8h-8.3
	v1.6l0,0l-0.1,37.5c0,5.4,4.4,9.8,9.8,9.8h12.3l0,0h1.6v-0.8l0,0L61.3,48.2L61.3,48.2z"/>
<g>
	<g>
		<rect x="0.6" y="54" class="st1" width="73.1" height="17.3"/>
	</g>
</g>
<g class="st2">
	<path class="st3" d="M12.1,63c0,1.6-1.1,2.6-2.5,2.6c-0.7,0-1.3-0.2-1.7-0.7v2.6H6.7v-7.1H8v0.6c0.4-0.5,1-0.7,1.7-0.7
		C11,60.2,12.1,61.5,12.1,63z M10.8,63c0-0.8-0.6-1.4-1.4-1.4c-0.8,0-1.4,0.6-1.4,1.4c0,0.8,0.6,1.4,1.4,1.4
		C10.2,64.5,10.8,63.9,10.8,63z"/>
	<path class="st3" d="M17.8,62.4v3.1h-1.3v-3c0-0.7-0.4-1.1-1-1.1s-1.1,0.4-1.1,1.3v2.8H13v-7.1h1.3v2.6c0.4-0.5,0.8-0.7,1.6-0.7
		C16.9,60.2,17.8,61.1,17.8,62.4z"/>
	<path class="st3" d="M18.7,63c0-1.6,1.2-2.6,2.6-2.6c1.4,0,2.6,1.2,2.6,2.6s-1.2,2.6-2.6,2.6C19.9,65.7,18.7,64.5,18.7,63z
		 M22.8,63c0-0.8-0.6-1.4-1.4-1.4c-0.7,0-1.3,0.6-1.3,1.4c0,0.8,0.6,1.4,1.3,1.4C22.2,64.3,22.8,63.7,22.8,63z"/>
	<path class="st3" d="M26.6,61.7v2.2c0,0.6,0.4,0.6,1.2,0.5v1.2c-1.8,0.2-2.4-0.4-2.4-1.7v-2.2h-0.8v-1.2h0.8v-1.1l1.3-0.4v1.4h1.2
		v1.2H26.6z"/>
	<path class="st3" d="M28.3,63c0-1.6,1.2-2.6,2.6-2.6s2.6,1.2,2.6,2.6s-1.2,2.6-2.6,2.6S28.3,64.5,28.3,63z M32.4,63
		c0-0.8-0.6-1.4-1.4-1.4c-0.7,0-1.3,0.6-1.3,1.4c0,0.8,0.6,1.4,1.3,1.4C31.8,64.3,32.4,63.7,32.4,63z"/>
	<path class="st3" d="M39.7,60.4v4.8c0,1.7-1.3,2.4-2.6,2.4c-1.1,0-1.9-0.4-2.4-1.2l1.1-0.6c0.2,0.4,0.6,0.7,1.3,0.7
		c0.8,0,1.3-0.5,1.3-1.2v-0.6c-0.4,0.5-1,0.7-1.7,0.7c-1.4,0-2.5-1.2-2.5-2.6c0-1.4,1.1-2.6,2.5-2.6c0.7,0,1.3,0.2,1.7,0.7v-0.6h1.3
		V60.4z M38.5,62.9c0-0.8-0.6-1.4-1.4-1.4s-1.4,0.6-1.4,1.4s0.6,1.4,1.4,1.4S38.5,63.7,38.5,62.9z"/>
	<path class="st3" d="M43.8,60.4v1.4c-0.7-0.1-1.6,0.2-1.6,1.3v2.4h-1.3v-5h1.3v0.8C42.5,60.6,43.2,60.4,43.8,60.4z"/>
	<path class="st3" d="M49.6,60.4v5h-1.3v-0.6c-0.4,0.5-1,0.7-1.7,0.7c-1.3,0-2.5-1.2-2.5-2.6s1.1-2.6,2.5-2.6c0.7,0,1.3,0.2,1.7,0.7
		v-0.6C48.2,60.4,49.6,60.4,49.6,60.4z M48.2,63c0-0.8-0.6-1.4-1.4-1.4s-1.4,0.6-1.4,1.4c0,0.8,0.6,1.4,1.4,1.4S48.2,63.9,48.2,63z"
		/>
	<path class="st3" d="M56.2,63c0,1.6-1.1,2.6-2.5,2.6c-0.7,0-1.3-0.2-1.7-0.7v2.6h-1.3v-7.1H52v0.6c0.4-0.5,1-0.7,1.7-0.7
		C55.1,60.2,56.2,61.5,56.2,63z M54.9,63c0-0.8-0.6-1.4-1.4-1.4S52,62.2,52,63c0,0.8,0.6,1.4,1.4,1.4S54.9,63.9,54.9,63z"/>
	<path class="st3" d="M61.9,62.4v3.1h-1.3v-3c0-0.7-0.4-1.1-1-1.1c-0.6,0-1.1,0.4-1.1,1.3v2.8h-1.3v-7.1h1.3v2.6
		c0.4-0.5,0.8-0.7,1.6-0.7C61.1,60.2,61.9,61.1,61.9,62.4z"/>
	<path class="st3" d="M67.6,60.4l-1.8,5c-0.5,1.4-1.4,2.2-2.6,2v-1.2c0.7,0,1.1-0.2,1.3-1l-2.2-4.9h1.4l1.3,3.4l1.1-3.4H67.6z"/>
</g>
</svg>
