<?xml version="1.0" encoding="utf-8"?>
<!-- Generator: Adobe Illustrator 22.1.0, SVG Export Plug-In . SVG Version: 6.00 Build 0)  -->
<svg version="1.1" id="Layer_1" xmlns="http://www.w3.org/2000/svg" xmlns:xlink="http://www.w3.org/1999/xlink" x="0px" y="0px"
	 viewBox="0 0 184.1 51" style="enable-background:new 0 0 184.1 51;" xml:space="preserve">
<style type="text/css">
	.st0{fill:#686868;}
</style>
<path class="st0" d="M33.5,43.1c0,2.9-2.4,5.3-5.3,5.3h-2.1c-3.6,0-6.5-2.9-6.5-6.6v-6.5c0-3.6,2.9-6.5,6.6-6.5h2.3
	c2.8,0,5.1,2.3,5.1,5.1L33.5,43.1z M28.7,27.2h-7.4c-5.4,0-9.8,4.4-9.8,9.8v3.2c0,5.4,4.4,9.8,9.8,9.8h13.9l0.1-16.3
	C35.2,30.2,32.3,27.2,28.7,27.2"/>
<path class="st0" d="M96.4,35.7c0,4.8-3.9,8.6-8.6,8.6l0,0c-2.9,0-5.3-2.4-5.3-5.3l0.1-31.1c0-2.9,2.4-5.3,5.3-5.3l0,0
	c4.8,0,8.6,3.9,8.6,8.6L96.4,35.7z M88.3,1h-4.1c-5.4,0-9.8,4.4-9.8,9.8l-0.1,25.3c0,5.4,4.4,9.8,9.8,9.8h4.1c5.4,0,9.8-4.4,9.8-9.8
	l0.1-25.3C98.1,5.5,93.7,1.1,88.3,1"/>
<path class="st0" d="M71.9,36.3V1h-8.2v49H98v-1.7H84C77.3,48.4,71.9,43,71.9,36.3"/>
<path class="st0" d="M33.5,15c0,4.5-3.7,8.2-8.2,8.2h-11c-2.9,0-5.3-2.4-5.3-5.3V8.1c0-2.9,2.4-5.3,5.3-5.3h11
	c4.5,0,8.2,3.7,8.2,8.2V15z M25.4,1H0.9v49H9V36.9c0-6.7,5.4-12.1,12.1-12.1h4.2c5.4,0,9.8-4.4,9.8-9.8v-4.1C35.2,5.4,30.8,1,25.4,1
	"/>
<path class="st0" d="M102.1,1.1v1.6c5.4,0,9.8,4.4,9.8,9.8v37.6h8.2V14.8c0-6.7,5.4-12.1,12.1-12.1h14V1.1H102.1z"/>
<path class="st0" d="M144.6,39.9c0,4.8-3.9,8.6-8.6,8.6l0,0c-2.9,0-5.3-2.4-5.3-5.3l0.1-31.1c0-2.9,2.4-5.3,5.3-5.3
	c4.8,0,8.6,3.9,8.6,8.6L144.6,39.9z M136.6,5.2h-4.1c-5.4,0-9.8,4.4-9.8,9.8l-0.1,25.3c0,5.4,4.4,9.8,9.8,9.8h4.1
	c5.4,0,9.8-4.4,9.8-9.8l0.1-25.3C146.3,9.6,142,5.2,136.6,5.2"/>
<path class="st0" d="M170.8,1.1V45L158.3,5.6c-0.9-2.7-3.4-4.6-6.2-4.6h-1.7h-1.6v49h1.6V8.5L164.2,50h6.5l0,0h1.6V1h-1.5V1.1z"/>
<path class="st0" d="M178.9,1.1L178.9,1.1c-2.3,0-4.1,1.8-4.1,4.1s1.8,4.1,4.1,4.1c0.9,0,1.8-0.3,2.5-0.8l0,0c0,3.6-2.9,6.6-6.6,6.6
	v35.1h8.2v-41V8.4V5.1C183,2.9,181.2,1.1,178.9,1.1"/>
<path class="st0" d="M61.3,48.2v-0.6V3.5l0,0V1.1h-1.5l-0.1,42.1c0,2.9-2.4,5.3-5.3,5.3h-2.1c-3.6,0-6.5-2.9-6.5-6.6l0.1-40.8h-8.3
	v1.6l0,0l-0.1,37.5c0,5.4,4.4,9.8,9.8,9.8h12.3l0,0h1.6v-0.8l0,0L61.3,48.2L61.3,48.2z"/>
</svg>
