<?xml version="1.0" encoding="utf-8"?>
<!-- Generator: Adobe Illustrator 22.1.0, SVG Export Plug-In . SVG Version: 6.00 Build 0)  -->
<svg version="1.1" id="Layer_1" xmlns="http://www.w3.org/2000/svg" xmlns:xlink="http://www.w3.org/1999/xlink" x="0px" y="0px"
	 viewBox="0 0 25 25" style="enable-background:new 0 0 25 25;" xml:space="preserve">
<style type="text/css">
	.st0{fill:#383838;}
</style>
<g>
	<g>
		<path class="st0" d="M12.5,25C5.6,25,0,19.4,0,12.5S5.6,0,12.5,0S25,5.6,25,12.5S19.4,25,12.5,25z M12.5,1C6.2,1,1,6.2,1,12.5
			S6.2,24,12.5,24S24,18.8,24,12.5S18.8,1,12.5,1z"/>
	</g>
	<g>
		<path class="st0" d="M15.4,8H9.6c-1.1,0-2,0.9-2,2v5.6c0,1.1,0.9,2,2,2h5.9c1.1,0,2-0.9,2-2V10C17.4,8.9,16.5,8,15.4,8z
			 M16.6,15.5c0,0.6-0.5,1.1-1.1,1.1H9.6c-0.6,0-1.1-0.5-1.1-1.1V10c0-0.6,0.5-1.1,1.1-1.1h5.9c0.6,0,1.1,0.5,1.1,1.1V15.5z"/>
		<path class="st0" d="M12.5,10.1c-1.5,0-2.7,1.2-2.7,2.7s1.2,2.7,2.7,2.7s2.7-1.2,2.7-2.7S14,10.1,12.5,10.1z M12.5,14.6
			c-1,0-1.8-0.8-1.8-1.8s0.8-1.8,1.8-1.8s1.8,0.8,1.8,1.8C14.3,13.7,13.5,14.6,12.5,14.6z"/>
		<path class="st0" d="M15.2,9.5c-0.3,0-0.5,0.2-0.5,0.5s0.2,0.5,0.5,0.5s0.5-0.2,0.5-0.5C15.6,9.7,15.4,9.5,15.2,9.5z"/>
	</g>
</g>
</svg>
