<?xml version="1.0" encoding="utf-8"?>
<!-- Generator: Adobe Illustrator 22.1.0, SVG Export Plug-In . SVG Version: 6.00 Build 0)  -->
<svg version="1.1" id="Layer_1" xmlns="http://www.w3.org/2000/svg" xmlns:xlink="http://www.w3.org/1999/xlink" x="0px" y="0px"
	 viewBox="0 0 25 25" style="enable-background:new 0 0 25 25;" xml:space="preserve">
<style type="text/css">
	.st0{fill:#B0B0B0;}
</style>
<g>
	<path class="st0" d="M14.8,14.5c0.2,0,0.6-0.2,1.1-0.6c0.8-0.6,1.6-2.4,1-4.4C16.7,8.9,16.3,8,16.3,8s-0.7,1.3-2.3,2.1
		c-0.7,0.4-1.3,0.6-1.7,0.7c0-1.2-1-2.1-2.2-2.1C9,8.5,8,9.5,8,10.7l0,0l-1.4,0.5L8,11.9c0,0-0.2,2.8,3.2,4.4s6.6-0.7,6.6-0.7
		S16,15.4,14.8,14.5z M9.6,10.8c-0.6,0-0.6-1,0-1C10.3,9.9,10.3,10.8,9.6,10.8z"/>
	<g>
		<path class="st0" d="M12.5,0C5.6,0,0,5.6,0,12.5S5.6,25,12.5,25S25,19.4,25,12.5S19.4,0,12.5,0z M12.5,24C6.2,24,1,18.8,1,12.5
			S6.2,1,12.5,1S24,6.2,24,12.5S18.8,24,12.5,24z"/>
	</g>
</g>
</svg>
